<svg xmlns="http://www.w3.org/2000/svg" width="35" height="35" viewBox="0 0 35 35">
  <metadata><?xpacket begin="﻿" id="W5M0MpCehiHzreSzNTczkc9d"?>
<x:xmpmeta xmlns:x="adobe:ns:meta/" x:xmptk="Adobe XMP Core 5.6-c138 79.159824, 2016/09/14-01:09:01        ">
   <rdf:RDF xmlns:rdf="http://www.w3.org/1999/02/22-rdf-syntax-ns#">
      <rdf:Description rdf:about=""/>
   </rdf:RDF>
</x:xmpmeta>
                                                                                                    
                                                                                                    
                                                                                                    
                                                                                                    
                                                                                                    
                                                                                                    
                                                                                                    
                                                                                                    
                                                                                                    
                                                                                                    
                                                                                                    
                                                                                                    
                                                                                                    
                                                                                                    
                                                                                                    
                                                                                                    
                                                                                                    
                                                                                                    
                                                                                                    
                                                                                                    
                           
<?xpacket end="w"?></metadata>
<defs>
    <style>
      .cls-1 {
        fill: #333;
        fill-rule: evenodd;
      }
    </style>
  </defs>
  <path id="youtube" class="cls-1" d="M1377.5,205a17.5,17.5,0,1,1-17.5,17.5A17.5,17.5,0,0,1,1377.5,205Zm9.11,13.034a2.323,2.323,0,0,0-1.68-1.64,71.334,71.334,0,0,0-14.86,0,2.354,2.354,0,0,0-1.69,1.64,25.766,25.766,0,0,0,0,8.932,2.357,2.357,0,0,0,1.69,1.641,71.518,71.518,0,0,0,14.86,0,2.343,2.343,0,0,0,1.68-1.641A25.131,25.131,0,0,0,1386.61,218.033Zm-10.62,6.958v-4.984L1381,222.5Z" transform="translate(-1360 -205)"/>
</svg>
