<svg 
 xmlns="http://www.w3.org/2000/svg"
 xmlns:xlink="http://www.w3.org/1999/xlink"
 width="20px" height="20px" viewBox="0 0 20 20">
<path fill-rule="evenodd"  fill="#333"
 d="M9.500,-0.006 C4.261,-0.006 -0.000,4.256 -0.000,9.494 C-0.000,14.732 4.261,18.995 9.500,18.995 C14.739,18.995 19.000,14.732 19.000,9.494 C19.000,4.256 14.739,-0.006 9.500,-0.006 ZM9.500,1.577 C11.058,1.577 12.506,2.041 13.730,2.816 L13.087,2.890 L13.235,4.473 L12.394,4.101 L11.702,4.695 L11.825,6.328 L13.532,5.783 L15.660,6.476 L15.116,7.467 L13.829,6.674 L12.444,6.873 L11.083,7.887 L10.316,10.262 L11.850,11.523 C11.850,11.523 13.424,11.252 13.508,11.252 C13.591,11.252 14.176,12.686 14.176,12.686 L12.914,16.643 C11.884,17.137 10.721,17.412 9.500,17.412 C9.249,17.412 9.002,17.383 8.758,17.361 L7.892,15.852 L8.733,12.686 L5.542,10.286 L2.597,10.286 L1.831,8.728 L3.958,7.045 L7.125,5.537 L6.655,3.433 L8.015,3.136 L8.659,4.028 L11.034,3.582 L10.613,1.751 L8.857,1.627 C9.067,1.612 9.283,1.577 9.500,1.577 ZM8.609,1.627 L7.372,2.148 L6.779,2.047 C7.363,1.835 7.969,1.699 8.609,1.627 ZM1.633,10.113 L2.400,11.003 L2.400,12.637 L3.884,14.270 L4.799,14.270 L7.051,17.040 C4.063,16.071 1.883,13.366 1.633,10.113 Z"/>
</svg>
