<svg xmlns="http://www.w3.org/2000/svg" width="35" height="35" viewBox="0 0 35 35">
  <metadata><?xpacket begin="﻿" id="W5M0MpCehiHzreSzNTczkc9d"?>
<x:xmpmeta xmlns:x="adobe:ns:meta/" x:xmptk="Adobe XMP Core 5.6-c138 79.159824, 2016/09/14-01:09:01        ">
   <rdf:RDF xmlns:rdf="http://www.w3.org/1999/02/22-rdf-syntax-ns#">
      <rdf:Description rdf:about=""/>
   </rdf:RDF>
</x:xmpmeta>
                                                                                                    
                                                                                                    
                                                                                                    
                                                                                                    
                                                                                                    
                                                                                                    
                                                                                                    
                                                                                                    
                                                                                                    
                                                                                                    
                                                                                                    
                                                                                                    
                                                                                                    
                                                                                                    
                                                                                                    
                                                                                                    
                                                                                                    
                                                                                                    
                                                                                                    
                                                                                                    
                           
<?xpacket end="w"?></metadata>
<defs>
    <style>
      .cls-1 {
        fill: #333;
        fill-rule: evenodd;
      }
    </style>
  </defs>
  <path id="twitter" class="cls-1" d="M1189.5,240a17.5,17.5,0,1,1,17.5-17.5A17.5,17.5,0,0,1,1189.5,240Zm7.28-22.216a3.645,3.645,0,0,0,1.6-2.017,7.253,7.253,0,0,1-2.31.884,3.65,3.65,0,0,0-6.22,3.327,10.339,10.339,0,0,1-7.51-3.81,3.649,3.649,0,0,0,1.12,4.869,3.665,3.665,0,0,1-1.65-.458v0.047a3.653,3.653,0,0,0,2.93,3.575,3.637,3.637,0,0,1-1.65.063,3.656,3.656,0,0,0,3.41,2.533,7.328,7.328,0,0,1-5.4,1.511,10.368,10.368,0,0,0,15.96-8.739c0-.158,0-0.315-0.01-0.472a7.145,7.145,0,0,0,1.82-1.887A7.243,7.243,0,0,1,1196.78,217.783Z" transform="translate(-1172 -205)"/>
</svg>
